# xmcd
#
# Track frame offsets:
#	150
#	14071
#	27534
#	45125
#	59226
#	76952
#	91259
#	110353
#	122974
#	141729
#	152232
#	167620
#	187465
#	202692
#
# Disc length: 2916 seconds
#
# Revision: 1
# Processed by: cddbd v1.5.2PL0 Copyright (c) Steve Scherf et al.
# Submitted via: audiograbber 1.83.01
#
DISCID=c90b620e
DTITLE=Misty Blue - companions
DYEAR=2008
DGENRE=Blue Grass
TTITLE0=My Dear Companion
TTITLE1=Eight More Miles To Louisville
TTITLE2=Just When I Needed You Most
TTITLE3=Fun On The Wabash
TTITLE4=Blackberry Blossom
TTITLE5=La Ultima Noche
TTITLE6=Hijo De La Luna
TTITLE7=Used To Be
TTITLE8=Ghost In This House
TTITLE9=Pig In A Pen
TTITLE10=Roseville Flair
TTITLE11=Jolene
TTITLE12=In The Pines
TTITLE13=Nach Em Räge Schint d'Sunne
EXTD=
EXTT0=
EXTT1=
EXTT2=
EXTT3=
EXTT4=
EXTT5=
EXTT6=
EXTT7=
EXTT8=
EXTT9=
EXTT10=
EXTT11=
EXTT12=
EXTT13=
PLAYORDER=
